# xmcd
#
# Track frame offsets:
#	150
#	56975
#	77414
#	98960
#	119144
#	162541
#	183528
#	198362
#	216982
#	230036
#	246729
#	298585
#	309326
#	322294
#	340280
#
# Disc length: 4701
#
# Revision: 1
# Processed by: cddbd v1.5.1PL0 Copyright (c) Steve Scherf et al.
# Submitted via: CDex 1.51
# Normalized: r0:TDELIM( - )
#
DISCID=f7125b0f
DTITLE=david axelrod - anthology
DYEAR=2002
DGENRE=Jazz
TTITLE0=cannonball adderly - tensity
TTITLE1=david axelrod - song of innocence
TTITLE2=david axelrod - sick rose
TTITLE3=david axelrod - warning pt.2
TTITLE4=david axelrod - introit/krystallnacht
TTITLE5=david axelrod - a divine image
TTITLE6=david axelrod - i fall to pieces (instrumental)
TTITLE7=ray brown - good day sunshine
TTITLE8=david mccallum - the edge
TTITLE9=don randi - theme from che
TTITLE10=cannonball adderly - happy people
TTITLE11=david mccallum - house of mirrors
TTITLE12=lou rawls - you´re good thing (is about to end)
TTITLE13=lou rawls - dead end street
TTITLE14=david axelrod - merlin´s prophecy
EXTD=YEAR: 2002
EXTT0=
EXTT1=
EXTT2=
EXTT3=
EXTT4=
EXTT5=
EXTT6=
EXTT7=
EXTT8=
EXTT9=
EXTT10=
EXTT11=
EXTT12=
EXTT13=
EXTT14=
PLAYORDER=
